<?xml version="1.0" encoding="utf-8"?>
<!-- Generator: Adobe Illustrator 23.0.3, SVG Export Plug-In . SVG Version: 6.00 Build 0)  -->
<svg version="1.1" id="patterns" xmlns="http://www.w3.org/2000/svg" xmlns:xlink="http://www.w3.org/1999/xlink" x="0px" y="0px"
	 viewBox="0 0 350 350" style="enable-background:new 0 0 350 350;" xml:space="preserve">
<style type="text/css">
	.st0{fill:url(#SVGID_1_);}
</style>
<g>
	<rect width="350" height="350"/>
	<linearGradient id="SVGID_1_" gradientUnits="userSpaceOnUse" x1="0" y1="175" x2="350" y2="175">
		<stop  offset="0" style="stop-color:#988138"/>
		<stop  offset="0.0999" style="stop-color:#B39743"/>
		<stop  offset="0.2019" style="stop-color:#C9A94C"/>
		<stop  offset="0.3035" style="stop-color:#D8B551"/>
		<stop  offset="0.4035" style="stop-color:#E2BD55"/>
		<stop  offset="0.5" style="stop-color:#E7C157"/>
		<stop  offset="0.5965" style="stop-color:#E2BD55"/>
		<stop  offset="0.6965" style="stop-color:#D8B551"/>
		<stop  offset="0.7981" style="stop-color:#C9A94C"/>
		<stop  offset="0.9001" style="stop-color:#B39743"/>
		<stop  offset="1" style="stop-color:#988138"/>
	</linearGradient>
	<path class="st0" d="M112.34,350h2.83l8.67-8.67l3,8.67h2.12l-3.54-10.24l13.6-13.6V350h2v-23.84l13.6,13.6L151.06,350h2.12l3-8.67
		l8.66,8.67h2.83L140,322.33L112.34,350z M0,322.34V350h1.01v-23.84l13.6,13.6L11.06,350h2.12l3-8.67l8.66,8.67h2.83L0,322.34
		L0,322.34z M42.34,350h2.83l8.67-8.67l3,8.67h2.12l-3.54-10.24l13.6-13.6V350h2v-23.84l13.6,13.6L81.06,350h2.12l3-8.67l8.66,8.67
		h2.83L70,322.33L42.34,350z M252.34,350h2.83l8.67-8.67l3,8.67h2.12l-3.54-10.24l13.6-13.6V350h2v-23.84l13.6,13.6L291.06,350h2.12
		l3-8.67l8.66,8.67h2.83L280,322.33L252.34,350z M350,0h-1v29.05L338.94,0h-2.12l10.81,31.21L320.79,4.37L325.16,0h-2.83l-2.96,2.96
		L316.42,0h-2.83l-2.96,2.96L307.67,0h-2.83l4.37,4.37l-26.84,26.84L293.17,0h-2.12L281,29.05V0h-2v29.05L268.95,0h-2.12l10.8,31.21
		L250.79,4.37L255.16,0h-2.83l-2.96,2.96L246.42,0h-2.83l-2.96,2.96L237.67,0h-2.83l4.37,4.37l-26.84,26.84L223.18,0h-2.12
		L211,29.05V0h-2v29.05L198.95,0h-2.12l10.81,31.21L180.79,4.37L185.16,0h-2.83l-2.96,2.96L176.42,0h-2.83l-2.96,2.96L167.67,0
		h-2.83l4.37,4.37l-26.84,26.84L153.18,0h-2.12L141,29.05V0h-2v29.05L128.95,0h-2.12l10.8,31.21L110.79,4.37L115.17,0h-2.83
		l-2.96,2.96L106.42,0h-2.83l-2.96,2.96L97.67,0h-2.83l4.37,4.37L72.37,31.22L83.18,0h-2.12L71,29.05V0h-2v29.05L58.95,0h-2.12
		l10.81,31.21L40.79,4.37L45.17,0h-2.83l-2.96,2.96L36.42,0h-2.83l-2.96,2.96L27.67,0h-2.83l4.37,4.37L2.37,31.22L13.18,0h-2.12
		L1.01,29.05V0H0v36.42l0.01-0.01L33.59,70l-2.96,2.96L0.01,42.33L0,42.34v64.08l0.01-0.01L33.59,140l-2.96,2.96L0.01,112.33
		L0,112.34v64.08l0.01-0.01L33.59,210l-2.96,2.96L0.01,182.33L0,182.34v64.08l0.01-0.01L33.59,280l-2.96,2.96L0.01,252.33L0,252.34
		v64.08l0.01-0.01L33.59,350l0,0h2.83L70,316.41L103.59,350l0,0h2.83L140,316.41L173.59,350l0,0h2.83L210,316.41L243.59,350l0,0
		h2.83L280,316.41L313.59,350l0,0h2.83L350,316.41v-64.08l-30.62,30.62l-2.96-2.96L350,246.41v-64.08l-30.62,30.62l-2.96-2.96
		L350,176.41v-64.08l-30.62,30.62l-2.96-2.96L350,106.41V42.33l-30.62,30.62L316.42,70L350,36.41V0z M280,36.41L313.59,70
		l-2.96,2.96L280,42.33l-30.62,30.63L246.42,70L280,36.41z M312.63,66.21l-26.84-26.84l13.04-13.04L312.63,66.21z M300.4,24.76
		l13.6-13.6v52.89L300.4,24.76z M312.63,136.21l-26.84-26.84l13.04-13.04L312.63,136.21z M300.4,94.76l13.6-13.6v52.89L300.4,94.76z
		 M313.59,140l-2.96,2.96L280,112.33l-30.62,30.63l-2.96-2.96L280,106.41L313.59,140z M312.63,206.21l-26.84-26.84l13.04-13.04
		L312.63,206.21z M300.4,164.76l13.6-13.6v52.89L300.4,164.76z M313.59,210l-2.96,2.96L280,182.33l-30.62,30.63l-2.96-2.96
		L280,176.41L313.59,210z M296.17,201.34l13.04,13.04l-26.84,26.84L296.17,201.34z M281,239.05v-52.89l13.6,13.6L281,239.05z
		 M261.17,236.34l13.04,13.04l-26.84,26.84L261.17,236.34z M246,274.05v-52.89l13.6,13.6L246,274.05z M245,217.33l-30.63,30.63
		l-2.96-2.96l25.71-25.71l7.88-7.88L278.59,245l-2.96,2.96L245,217.33z M230.4,234.76l13.6-13.6v52.89L230.4,234.76z M242.63,276.21
		l-26.84-26.84l13.04-13.04L242.63,276.21z M191.18,236.34l13.04,13.04l-26.84,26.84L191.18,236.34z M176,274.05v-52.89l13.6,13.6
		L176,274.05z M175,217.33l-30.63,30.63l-2.96-2.96l25.71-25.71l7.88-7.88L208.59,245l-2.96,2.96L175,217.33z M160.4,234.76
		l13.6-13.6v52.89L160.4,234.76z M172.64,276.21l-26.84-26.84l13.04-13.04L172.64,276.21z M121.18,236.34l13.04,13.04l-26.84,26.84
		L121.18,236.34z M106,274.05v-52.89l13.6,13.6L106,274.05z M105,217.33l-30.63,30.63L71.42,245l25.71-25.71l7.88-7.88L138.59,245
		l-2.96,2.96L105,217.33z M90.4,234.76l13.6-13.6v52.89L90.4,234.76z M102.64,276.21l-26.84-26.84l13.04-13.04L102.64,276.21z
		 M55.4,199.76l13.6-13.6v52.89L55.4,199.76z M67.64,241.21l-26.84-26.84l13.04-13.04L67.64,241.21z M39.38,212.96L36.42,210
		L70,176.41L103.59,210l-2.96,2.96L70,182.33L39.38,212.96z M36.01,204.05v-52.89l13.6,13.6L36.01,204.05z M51.18,166.34
		l13.04,13.04l-26.84,26.84L51.18,166.34z M36.01,134.05V81.16l13.6,13.6L36.01,134.05z M51.18,96.33l13.04,13.04l-26.84,26.84
		L51.18,96.33z M70,106.41L103.59,140l-2.96,2.96L70,112.33l-30.63,30.63L36.42,140L70,106.41z M55.4,59.76L69,46.16v52.89
		L55.4,59.76z M67.64,101.21L40.79,74.37l13.04-13.04L67.64,101.21z M90.4,24.76l13.6-13.6v52.89L90.4,24.76z M102.64,66.21
		L75.79,39.37l13.04-13.04L102.64,66.21z M105,71.41L138.59,105l-2.96,2.96L105,77.33l-30.63,30.63L71.42,105l25.71-25.71L105,71.41
		z M106,64.05V11.16l13.6,13.6L106,64.05z M121.18,26.33l13.04,13.04l-26.84,26.84L121.18,26.33z M160.4,24.76l13.6-13.6v52.89
		L160.4,24.76z M172.64,66.21l-26.84-26.84l13.04-13.04L172.64,66.21z M175,71.41L208.59,105l-2.96,2.96L175,77.33l-30.63,30.63
		l-2.96-2.96l25.71-25.71L175,71.41z M176,64.05V11.16l13.6,13.6L176,64.05z M191.18,26.33l13.04,13.04l-26.84,26.84L191.18,26.33z
		 M230.4,24.76l13.6-13.6v52.89L230.4,24.76z M242.63,66.21l-26.84-26.84l13.04-13.04L242.63,66.21z M245,71.41L278.59,105
		l-2.96,2.96L245,77.33l-30.63,30.63l-2.96-2.96l25.71-25.71L245,71.41z M246,64.05V11.16l13.6,13.6L246,64.05z M261.17,26.33
		l13.04,13.04l-26.84,26.84L261.17,26.33z M277.63,101.21l-26.84-26.84l13.04-13.04L277.63,101.21z M265.4,59.76l13.6-13.6v52.89
		L265.4,59.76z M277.63,171.21l-26.84-26.84l13.04-13.04L277.63,171.21z M265.4,129.76l13.6-13.6v52.89L265.4,129.76z M278.59,175
		l-2.96,2.96L245,147.33l-30.63,30.63l-2.96-2.96l25.71-25.71l7.88-7.88L278.59,175z M261.17,166.34l13.04,13.04l-26.84,26.84
		L261.17,166.34z M246,204.05v-52.89l13.6,13.6L246,204.05z M230.4,164.76l13.6-13.6v52.89L230.4,164.76z M242.63,206.21
		l-26.84-26.84l13.04-13.04L242.63,206.21z M211,169.05v-52.89l13.6,13.6L211,169.05z M226.17,131.34l13.04,13.04l-26.84,26.84
		L226.17,131.34z M230.4,94.76l13.6-13.6v52.89L230.4,94.76z M242.63,136.21l-26.84-26.84l13.04-13.04L242.63,136.21z M261.17,96.33
		l13.04,13.04l-26.84,26.84L261.17,96.33z M246,134.05V81.16l13.6,13.6L246,134.05z M212.37,101.22l13.8-39.88l13.04,13.04
		L212.37,101.22z M211,99.05V46.16l13.6,13.6L211,99.05z M243.59,140l-2.96,2.96L210,112.33l-30.63,30.63l-2.96-2.96L210,106.41
		L243.59,140z M191.18,166.34l13.04,13.04l-26.84,26.84L191.18,166.34z M176,204.05v-52.89l13.6,13.6L176,204.05z M175,147.33
		l-30.63,30.63l-2.96-2.96l25.71-25.71l7.88-7.88L208.59,175l-2.96,2.96L175,147.33z M160.4,164.76l13.6-13.6v52.89L160.4,164.76z
		 M172.64,206.21l-26.84-26.84l13.04-13.04L172.64,206.21z M141,169.05v-52.89l13.6,13.6L141,169.05z M156.18,131.34l13.04,13.04
		l-26.84,26.84L156.18,131.34z M160.4,94.76l13.6-13.6v52.89L160.4,94.76z M172.64,136.21l-26.84-26.84l13.04-13.04L172.64,136.21z
		 M176,134.05V81.16l13.6,13.6L176,134.05z M191.18,96.33l13.04,13.04l-26.84,26.84L191.18,96.33z M180.79,144.37l13.04-13.04
		l13.8,39.88L180.79,144.37z M195.4,129.76l13.6-13.6v52.89L195.4,129.76z M209,99.05l-13.6-39.29l13.6-13.6V99.05z M207.63,101.21
		l-26.84-26.84l13.04-13.04L207.63,101.21z M142.37,101.22l13.8-39.88l13.04,13.04L142.37,101.22z M141,99.05V46.16l13.6,13.6
		L141,99.05z M173.59,140l-2.96,2.96L140,112.33l-30.63,30.63l-2.96-2.96L140,106.41L173.59,140z M121.18,166.34l13.04,13.04
		l-26.84,26.84L121.18,166.34z M106,204.05v-52.89l13.6,13.6L106,204.05z M105,147.33l-30.63,30.63L71.42,175l25.71-25.71l7.88-7.88
		L138.59,175l-2.96,2.96L105,147.33z M90.4,164.76l13.6-13.6v52.89L90.4,164.76z M102.64,206.21l-26.84-26.84l13.04-13.04
		L102.64,206.21z M71,169.05v-52.89l13.6,13.6L71,169.05z M86.18,131.34l13.04,13.04l-26.84,26.84L86.18,131.34z M90.4,94.76
		l13.6-13.6v52.89L90.4,94.76z M102.64,136.21l-26.84-26.84l13.04-13.04L102.64,136.21z M106,134.05V81.16l13.6,13.6L106,134.05z
		 M121.18,96.33l13.04,13.04l-26.84,26.84L121.18,96.33z M110.79,144.37l13.04-13.04l13.8,39.88L110.79,144.37z M125.4,129.76
		l13.6-13.6v52.89L125.4,129.76z M139,99.05l-13.6-39.29l13.6-13.6V99.05z M137.64,101.21l-26.84-26.84l13.04-13.04L137.64,101.21z
		 M72.37,101.22l13.8-39.88l13.04,13.04L72.37,101.22z M71,99.05V46.16l13.6,13.6L71,99.05z M53.83,131.34l13.8,39.88l-26.84-26.84
		L53.83,131.34z M55.4,129.76l13.6-13.6v52.89L55.4,129.76z M99.21,214.37l-26.84,26.84l13.8-39.88L99.21,214.37z M71,186.16
		l13.6,13.6L71,239.05V186.16z M110.79,214.37l13.04-13.04l13.8,39.88L110.79,214.37z M125.4,199.76l13.6-13.6v52.89L125.4,199.76z
		 M109.38,212.96l-2.96-2.96L140,176.41L173.59,210l-2.96,2.96L140,182.33L109.38,212.96z M169.21,214.37l-26.84,26.84l13.8-39.88
		L169.21,214.37z M141,186.16l13.6,13.6L141,239.05V186.16z M180.79,214.37l13.04-13.04l13.8,39.88L180.79,214.37z M195.4,199.76
		l13.6-13.6v52.89L195.4,199.76z M179.38,212.96l-2.96-2.96L210,176.41L243.59,210l-2.96,2.96L210,182.33L179.38,212.96z
		 M239.21,214.37l-26.84,26.84l13.8-39.88L239.21,214.37z M211,186.16l13.6,13.6L211,239.05V186.16z M250.79,214.37l13.04-13.04
		l13.8,39.88L250.79,214.37z M265.4,199.76l13.6-13.6v52.89L265.4,199.76z M296.17,131.34l13.04,13.04l-26.84,26.84L296.17,131.34z
		 M281,169.05v-52.89l13.6,13.6L281,169.05z M296.17,61.33l13.04,13.04l-26.84,26.84L296.17,61.33z M281,99.05V46.16l13.6,13.6
		L281,99.05z M237.13,9.29L245,1.41L278.59,35l-2.96,2.96L245,7.33l-30.63,30.63L211.42,35L237.13,9.29z M210,36.41L243.59,70
		l-2.96,2.96L210,42.33l-30.63,30.63L176.42,70L210,36.41z M167.13,9.29L175,1.41L208.59,35l-2.96,2.96L175,7.33l-30.63,30.63
		L141.42,35L167.13,9.29z M140,36.41L173.59,70l-2.96,2.96L140,42.33l-30.63,30.63L106.42,70L140,36.41z M97.13,9.29L105,1.41
		L138.59,35l-2.96,2.96L105,7.33L74.38,37.96L71.42,35L97.13,9.29z M70,36.41L103.59,70l-2.96,2.96L70,42.33L39.38,72.96L36.42,70
		L70,36.41z M36.01,64.05V11.16l13.6,13.6L36.01,64.05z M51.18,26.33l13.04,13.04L37.37,66.21L51.18,26.33z M1.42,35L27.13,9.29
		l7.88-7.88L68.59,35l-2.96,2.96L35.01,7.33L4.38,37.96L1.42,35z M5.79,39.37l13.04-13.04l13.8,39.88L5.79,39.37z M20.41,24.76
		l13.6-13.6v52.89L20.41,24.76z M29.22,74.37L2.37,101.22l13.8-39.88L29.22,74.37z M1.01,46.16l13.6,13.6L1.01,99.05V46.16z
		 M1.42,105l25.71-25.71l7.88-7.88L68.59,105l-2.96,2.96L35.01,77.33L4.38,107.96L1.42,105z M5.79,109.37l13.04-13.04l13.8,39.88
		L5.79,109.37z M20.41,94.76l13.6-13.6v52.89L20.41,94.76z M29.22,144.37L2.37,171.22l13.8-39.88L29.22,144.37z M1.01,116.16
		l13.6,13.6l-13.6,39.29V116.16z M1.42,175l25.71-25.71l7.88-7.88L68.59,175l-2.96,2.96l-30.62-30.63L4.38,177.96L1.42,175z
		 M5.79,179.37l13.04-13.04l13.8,39.88L5.79,179.37z M20.41,164.76l13.6-13.6v52.89L20.41,164.76z M29.22,214.37L2.37,241.22
		l13.8-39.88L29.22,214.37z M1.01,186.16l13.6,13.6l-13.6,39.29V186.16z M1.42,245l25.71-25.71l7.88-7.88L68.59,245l-2.96,2.96
		l-30.62-30.63L4.38,247.96L1.42,245z M51.18,236.34l13.04,13.04l-26.84,26.84L51.18,236.34z M36.01,274.05v-52.89l13.6,13.6
		L36.01,274.05z M5.79,249.37l13.04-13.04l13.8,39.88L5.79,249.37z M20.41,234.76l13.6-13.6v52.89L20.41,234.76z M29.22,284.37
		L2.37,311.22l13.8-39.88L29.22,284.37z M1.01,256.16l13.6,13.6l-13.6,39.29V256.16z M5.79,319.37l13.04-13.04l13.8,39.88
		L5.79,319.37z M34.01,344.05l-13.6-39.29l13.6-13.6V344.05z M36.01,344.05v-52.89l13.6,13.6L36.01,344.05z M37.37,346.21
		l13.8-39.88l13.04,13.04L37.37,346.21z M65.63,317.96l-30.62-30.63L4.38,317.96L1.42,315l25.71-25.71l7.88-7.88L68.59,315
		L65.63,317.96z M40.79,284.37l13.04-13.04l13.8,39.88L40.79,284.37z M69,309.05l-13.6-39.29l13.6-13.6V309.05z M39.38,282.96
		L36.42,280L70,246.41L103.59,280l-2.96,2.96L70,252.33L39.38,282.96z M99.21,284.37l-26.84,26.84l13.8-39.88L99.21,284.37z
		 M71,256.16l13.6,13.6L71,309.05V256.16z M75.79,319.37l13.04-13.04l13.8,39.88L75.79,319.37z M104,344.05l-13.6-39.29l13.6-13.6
		V344.05z M106,344.05v-52.89l13.6,13.6L106,344.05z M107.37,346.21l13.8-39.88l13.04,13.04L107.37,346.21z M135.63,317.96
		L105,287.33l-30.63,30.63L71.42,315l25.71-25.71l7.88-7.88L138.59,315L135.63,317.96z M110.79,284.37l13.04-13.04l13.8,39.88
		L110.79,284.37z M139,309.05l-13.6-39.29l13.6-13.6V309.05z M109.38,282.96l-2.96-2.96L140,246.41L173.59,280l-2.96,2.96
		L140,252.33L109.38,282.96z M169.21,284.37l-26.84,26.84l13.8-39.88L169.21,284.37z M141,256.16l13.6,13.6L141,309.05V256.16z
		 M145.79,319.37l13.04-13.04l13.8,39.88L145.79,319.37z M174,344.05l-13.6-39.29l13.6-13.6V344.05z M176,344.05v-52.89l13.6,13.6
		L176,344.05z M177.37,346.21l13.8-39.88l13.04,13.04L177.37,346.21z M205.63,317.96L175,287.33l-30.63,30.63l-2.96-2.96
		l25.71-25.71l7.88-7.88L208.59,315L205.63,317.96z M180.79,284.37l13.04-13.04l13.8,39.88L180.79,284.37z M209,309.05l-13.6-39.29
		l13.6-13.6V309.05z M179.38,282.96l-2.96-2.96L210,246.41L243.59,280l-2.96,2.96L210,252.33L179.38,282.96z M239.21,284.37
		l-26.84,26.84l13.8-39.88L239.21,284.37z M211,256.16l13.6,13.6L211,309.05V256.16z M215.79,319.37l13.04-13.04l13.8,39.88
		L215.79,319.37z M244,344.05l-13.6-39.29l13.6-13.6V344.05z M246,344.05v-52.89l13.6,13.6L246,344.05z M247.37,346.21l13.8-39.88
		l13.04,13.04L247.37,346.21z M275.63,317.96L245,287.33l-30.63,30.63l-2.96-2.96l25.71-25.71l7.88-7.88L278.59,315L275.63,317.96z
		 M250.79,284.37l13.04-13.04l13.8,39.88L250.79,284.37z M279,309.05l-13.6-39.29l13.6-13.6V309.05z M249.38,282.96l-2.96-2.96
		L280,246.41L313.59,280l-2.96,2.96L280,252.33L249.38,282.96z M312.63,276.21l-26.84-26.84l13.04-13.04L312.63,276.21z
		 M300.4,234.76l13.6-13.6v52.89L300.4,234.76z M309.21,284.37l-26.84,26.84l13.8-39.88L309.21,284.37z M281,256.16l13.6,13.6
		L281,309.05V256.16z M285.79,319.37l13.04-13.04l13.8,39.88L285.79,319.37z M314,344.05l-13.6-39.29l13.6-13.6V344.05z M316,344.05
		v-52.89l13.6,13.6L316,344.05z M317.37,346.21l13.8-39.88l13.04,13.04L317.37,346.21z M349,256.16v52.89l-13.6-39.29L349,256.16z
		 M333.83,271.33l13.8,39.88l-26.84-26.84L333.83,271.33z M348.59,315l-2.96,2.96L315,287.33l-30.63,30.63l-2.96-2.96l25.71-25.71
		l7.88-7.88L348.59,315z M316,274.05v-52.89l13.6,13.6L316,274.05z M317.37,276.21l13.8-39.88l13.04,13.04L317.37,276.21z
		 M349,186.16v52.89l-13.6-39.29L349,186.16z M333.83,201.34l13.8,39.88l-26.84-26.84L333.83,201.34z M348.59,245l-2.96,2.96
		L315,217.33l-30.63,30.63l-2.96-2.96l25.71-25.71l7.88-7.88L348.59,245z M316,204.05v-52.89l13.6,13.6L316,204.05z M317.37,206.21
		l13.8-39.88l13.04,13.04L317.37,206.21z M349,116.16v52.89l-13.6-39.29L349,116.16z M333.83,131.34l13.8,39.88l-26.84-26.84
		L333.83,131.34z M348.59,175l-2.96,2.96L315,147.33l-30.63,30.63l-2.96-2.96l25.71-25.71l7.88-7.88L348.59,175z M316,134.05V81.16
		l13.6,13.6L316,134.05z M317.37,136.21l13.8-39.88l13.04,13.04L317.37,136.21z M349,46.16v52.89l-13.6-39.29L349,46.16z
		 M333.83,61.33l13.8,39.88l-26.84-26.84L333.83,61.33z M348.59,105l-2.96,2.96L315,77.33l-30.63,30.63l-2.96-2.96l25.71-25.71
		l7.88-7.88L348.59,105z M316,64.05V11.16l13.6,13.6L316,64.05z M317.37,66.21l13.8-39.88l13.04,13.04L317.37,66.21z M345.63,37.96
		L315,7.33l-30.63,30.63L281.42,35l25.71-25.71L315,1.41L348.59,35L345.63,37.96z M182.34,350h2.83l8.67-8.67l3,8.67h2.12
		l-3.54-10.24l13.6-13.6V350h2v-23.84l13.6,13.6L221.06,350h2.12l3-8.67l8.66,8.67h2.83L210,322.33L182.34,350z M325.16,350
		l8.67-8.67l3,8.67h2.12l-3.54-10.24l13.6-13.6V350h1v-27.67L322.33,350H325.16z"/>
</g>
</svg>
